<?xml version="1.0" standalone="no"?>
<!DOCTYPE svg PUBLIC "-//W3C//DTD SVG 20010904//EN"
 "http://www.w3.org/TR/2001/REC-SVG-20010904/DTD/svg10.dtd">
<svg version="1.0" xmlns="http://www.w3.org/2000/svg"
 width="460.000000pt" height="460.000000pt" viewBox="0 0 460.000000 460.000000"
 preserveAspectRatio="xMidYMid meet">
<metadata>
Created by potrace 1.14, written by Peter Selinger 2001-2017
</metadata>
<g transform="translate(0.000000,460.000000) scale(0.100000,-0.100000)"
fill="#000000" stroke="none">
<path d="M902 4573 c101 -30 98 -25 98 -164 l0 -96 51 -16 c75 -25 87 -23 92
16 l4 32 1 -37 c1 -20 7 -40 14 -44 8 -5 10 24 5 116 -4 68 -7 145 -7 172 0
32 -4 48 -12 48 -10 0 -13 -31 -12 -127 l2 -128 -8 125 c-4 69 -8 126 -9 128
0 1 -70 2 -153 1 l-153 -1 87 -25z"/>
<path d="M1170 4546 l0 -55 103 -31 c56 -17 161 -51 232 -74 175 -58 433 -139
525 -166 41 -12 94 -29 117 -37 48 -17 63 -12 63 24 0 13 9 36 20 51 l21 26
-30 12 c-16 7 -60 22 -98 33 -69 20 -246 78 -473 156 -311 106 -344 115 -413
115 l-67 0 0 -54z"/>
<path d="M1695 4484 c187 -63 354 -119 371 -123 18 -5 37 -12 43 -15 6 -4 43
-16 83 -27 l71 -20 26 23 c14 13 43 40 66 60 78 73 155 97 375 118 91 9 170 4
305 -19 27 -5 55 -6 62 -4 7 3 37 -9 67 -26 48 -28 77 -50 190 -150 16 -14 25
-20 21 -12 -5 9 -2 19 10 28 11 7 13 13 7 13 -9 0 -12 29 -12 100 0 70 4 100
12 100 6 0 8 3 5 7 -14 13 27 31 53 22 24 -9 24 -8 5 6 -11 8 -25 19 -32 25
-8 7 -347 10 -1040 10 l-1028 0 340 -116z"/>
<path d="M3892 4542 c-6 -120 -1 -110 -44 -95 -20 7 -71 28 -113 48 -83 38
-113 46 -52 14 40 -21 47 -29 20 -24 -10 2 -37 6 -61 9 l-43 4 17 -26 c9 -14
28 -37 41 -49 36 -37 35 -84 -3 -144 -27 -43 -34 -44 -112 -23 -9 2 2 -5 26
-16 23 -12 42 -24 42 -28 0 -4 -9 -22 -20 -40 l-20 -33 72 7 c40 3 71 4 68 1
-4 -5 -186 -28 -228 -30 -7 0 -11 -3 -9 -6 2 -3 11 -24 21 -46 10 -22 27 -60
38 -84 17 -37 51 -158 60 -215 2 -12 23 -25 63 -40 52 -19 65 -30 97 -78 65
-96 66 -115 42 -995 l-7 -242 48 -21 c27 -12 76 -29 110 -38 33 -9 93 -36 133
-59 40 -24 79 -43 86 -43 22 0 196 -160 196 -181 0 -4 6 -14 13 -21 22 -22 67
-92 67 -103 0 -6 -19 -12 -42 -13 -57 -4 -108 -23 -108 -40 0 -15 39 -13 126
4 30 6 31 4 72 -78 22 -45 52 -103 66 -128 14 -25 29 -65 34 -90 7 -30 9 140
8 505 l-1 550 -24 3 c-20 3 -22 8 -17 34 3 17 6 61 6 98 0 63 1 68 20 63 18
-5 20 0 20 41 0 40 -3 46 -21 46 -20 0 -21 4 -16 48 4 26 10 130 14 232 4 111
10 169 14 145 3 -22 7 168 8 423 1 453 1 462 -18 462 -20 0 -101 -10 -259 -32
-90 -12 -120 -6 -50 11 l43 11 -42 -5 c-26 -3 -43 -1 -43 5 0 16 -64 39 -72
26 -5 -7 -8 -3 -9 9 l0 20 -9 -20 c-8 -18 -9 -17 -9 8 -1 27 -14 36 -26 17 -9
-15 -35 -12 -35 5 0 8 -6 12 -13 9 -24 -9 -89 51 -94 88 -2 12 -9 26 -17 30
-8 4 -13 31 -15 70 -2 74 -8 98 -24 98 -8 0 -13 -22 -15 -58z m276 -319 c-10
-2 -26 -2 -35 0 -10 3 -2 5 17 5 19 0 27 -2 18 -5z m2 -23 c-227 -31 -402 -51
-417 -47 -19 4 -6 6 197 31 176 23 180 23 230 23 44 0 44 0 -10 -7z m285 -962
c-3 -84 -8 -186 -11 -225 l-6 -73 -165 0 -165 0 6 23 c3 12 6 81 7 152 1 87 4
115 9 85 l6 -45 5 40 c4 37 7 40 37 43 23 2 32 8 32 22 0 10 -6 20 -12 23 -7
2 1 4 19 5 18 0 48 8 68 17 25 12 39 14 48 7 6 -6 23 -10 37 -10 14 0 34 -2
45 -4 15 -2 20 3 21 22 1 27 13 70 20 70 2 0 1 -69 -1 -152z m-207 135 c-21
-2 -57 -2 -80 0 -24 2 -7 4 37 4 44 0 63 -2 43 -4z m137 -3 c3 -5 1 -10 -4
-10 -6 0 -11 5 -11 10 0 6 2 10 4 10 3 0 8 -4 11 -10z m-358 -502 c-2 -35 -3
-7 -3 62 0 69 1 97 3 63 2 -35 2 -91 0 -125z m413 -87 c0 -95 -13 -271 -19
-267 -14 9 -229 15 -266 8 -30 -6 -39 -12 -37 -25 2 -9 -3 -17 -9 -17 -9 0
-10 31 -6 128 4 70 7 151 7 180 l0 52 165 -1 165 -1 0 -57z m17 -58 c-2 -16
-4 -5 -4 22 0 28 2 40 4 28 2 -13 2 -35 0 -50z m53 -93 c0 -5 -4 -10 -10 -10
-5 0 -10 5 -10 10 0 6 5 10 10 10 6 0 10 -4 10 -10z m70 -2 c0 -7 -5 -20 -10
-28 -8 -12 -10 -9 -10 13 0 15 5 27 10 27 6 0 10 -6 10 -12z m0 -108 c0 -22
-4 -40 -10 -40 -11 0 -13 39 -4 64 10 26 14 19 14 -24z m-157 -37 c-7 -2 -21
-2 -30 0 -10 3 -4 5 12 5 17 0 24 -2 18 -5z m167 -32 c0 -5 -7 -14 -15 -21
-13 -10 -15 -9 -15 9 0 12 6 21 15 21 8 0 15 -4 15 -9z m-220 -75 c0 -3 -4 -8
-10 -11 -5 -3 -10 -1 -10 4 0 6 5 11 10 11 6 0 10 -2 10 -4z m-70 -36 c0 -5
-12 -10 -27 -9 l-28 1 25 8 c14 4 26 8 28 9 1 1 2 -3 2 -9z m-52 -37 c-26 -2
-71 -2 -100 0 -29 2 -8 3 47 3 55 0 79 -1 53 -3z m139 1 c-3 -3 -12 -4 -19 -1
-8 3 -5 6 6 6 11 1 17 -2 13 -5z"/>
<path d="M0 4185 l0 -374 33 -6 c17 -3 61 -10 97 -15 36 -6 105 -17 155 -26
74 -12 350 -55 445 -69 14 -2 55 -7 92 -11 47 -4 69 -11 73 -22 3 -9 9 -129
12 -268 6 -241 5 -253 -14 -280 -11 -16 -23 -41 -27 -56 -6 -25 -11 -28 -50
-28 -54 0 -66 -13 -73 -83 -7 -71 12 -157 40 -180 22 -18 22 -18 1 -12 -18 5
-21 2 -17 -19 3 -16 -7 -51 -28 -93 -33 -69 -37 -73 -100 -118 l-37 -26 -68
37 c-38 20 -86 52 -106 72 -21 20 -38 32 -38 27 0 -4 -9 0 -19 9 -23 21 -63
13 -54 -9 3 -8 9 -12 14 -9 5 3 9 0 9 -6 0 -6 5 -8 10 -5 6 3 10 2 10 -3 0 -5
-12 -14 -26 -21 -23 -10 -30 -9 -50 10 -27 25 -33 20 -8 -6 22 -21 11 -29 -35
-27 -23 2 -45 -3 -53 -11 -8 -8 -24 -17 -35 -21 -12 -4 -25 -15 -28 -25 -3 -9
-21 -25 -40 -34 -34 -16 -42 -27 -29 -40 8 -7 74 22 142 62 29 17 64 31 77 31
14 0 42 6 62 14 66 25 93 28 99 12 3 -8 1 -23 -5 -33 -9 -16 -11 -15 -12 7 -1
17 -3 20 -6 8 -2 -10 -10 -18 -18 -18 -7 0 -16 -7 -19 -16 -4 -10 -2 -13 6 -8
7 5 8 3 4 -5 -5 -7 -15 -10 -25 -7 -12 5 -12 3 3 -9 15 -11 38 -13 111 -8 75
5 97 3 115 -10 22 -15 22 -16 -21 -27 -24 -6 -53 -15 -64 -20 -139 -62 -150
-66 -140 -50 3 5 -1 10 -11 10 -11 0 -15 6 -11 20 3 13 0 20 -9 20 -8 0 -11
-6 -7 -15 7 -20 -16 -16 -37 6 -8 9 -31 18 -50 22 -19 3 -29 3 -22 0 23 -9 12
-19 -24 -21 -33 -3 -35 -1 -20 13 9 9 16 21 16 26 0 6 4 8 8 5 8 -5 82 40 82
49 0 16 -118 -37 -132 -59 -4 -6 -8 -7 -8 -3 0 4 -21 -7 -48 -24 -38 -26 -43
-28 -27 -9 18 21 16 21 -22 -5 l-43 -28 0 -1183 0 -1184 373 0 372 0 33 68
c36 75 38 85 18 101 -18 15 -11 39 36 128 21 40 38 74 38 77 0 2 -13 7 -30 11
-28 6 -41 29 -21 37 5 1 22 30 39 64 17 33 37 66 46 73 9 8 16 18 16 24 0 15
-33 36 -57 37 -36 0 -28 28 23 76 38 35 45 48 40 66 -4 13 -9 31 -11 41 -4 20
14 68 30 79 6 5 5 18 -3 40 -31 77 -31 84 -4 125 52 77 84 153 74 182 -9 30
-5 61 9 61 5 0 26 -8 47 -19 20 -10 55 -21 77 -25 41 -8 173 -43 280 -76 56
-17 81 -17 295 -9 129 5 316 14 415 20 99 7 243 15 320 20 178 10 204 15 217
45 13 27 45 39 86 31 15 -3 50 -1 77 3 28 5 77 12 110 16 33 4 52 9 43 11 -10
3 -18 8 -18 13 0 5 8 6 17 3 12 -5 15 -2 10 10 -3 9 -3 16 1 16 4 -1 14 -1 22
0 13 1 13 2 0 11 -12 8 -11 10 8 10 27 0 28 8 5 26 -16 12 -15 13 14 14 17 0
34 -4 38 -10 3 -5 18 -9 33 -8 15 1 35 -2 45 -6 13 -6 17 -3 17 13 0 27 20 19
45 -19 22 -33 81 -73 99 -67 6 2 19 -5 29 -15 18 -19 16 -21 -18 -19 -18 1
-18 0 3 -11 12 -6 22 -18 22 -27 0 -13 2 -13 9 -2 7 10 22 12 66 6 79 -9 85
-13 85 -46 0 -36 13 -37 29 -2 8 18 15 23 22 16 8 -8 7 -18 -1 -33 -17 -32 -5
-36 16 -5 15 23 22 25 54 20 46 -8 59 6 58 63 0 39 -12 56 -20 31 -2 -7 -9
-10 -16 -8 -20 7 16 49 41 49 46 0 98 21 95 37 -2 13 -15 16 -55 16 -28 -1
-60 -4 -70 -7 -20 -6 -63 18 -51 29 3 3 25 8 47 9 23 2 44 5 47 8 9 9 -8 38
-18 32 -6 -4 -9 -1 -7 5 3 7 8 11 12 9 5 -2 12 4 17 13 5 8 27 22 50 29 22 7
45 19 51 26 9 11 3 13 -29 9 -41 -4 -101 -39 -103 -59 0 -6 -4 -1 -9 12 -7 17
-17 22 -47 22 l-38 1 38 34 c40 38 44 50 23 78 -13 17 -16 17 -53 2 -36 -15
-37 -17 -19 -31 11 -7 16 -17 13 -21 -4 -3 -21 3 -37 15 -16 12 -34 22 -39 22
-17 0 -24 -22 -10 -31 8 -5 -17 -6 -59 -2 -60 5 -72 3 -72 -9 0 -12 -11 -14
-52 -11 -29 2 -59 5 -65 8 -7 2 -13 0 -13 -5 0 -13 -57 -13 -65 0 -3 6 -24 10
-46 10 -21 0 -39 4 -39 8 0 13 -48 33 -55 23 -3 -5 -13 -7 -23 -4 -10 2 -30 0
-44 -6 -25 -10 -27 -15 -31 -83 -3 -60 -4 -56 -4 27 -1 122 -1 124 -13 105 -5
-8 -10 -10 -10 -3 0 15 -29 10 -40 -6 -6 -11 -8 -11 -12 -1 -5 16 -60 20 -70
6 -5 -7 -8 -3 -8 8 0 16 -2 17 -17 5 -13 -12 -17 -12 -21 -1 -3 10 -8 7 -16
-8 -6 -13 -15 -21 -20 -19 -5 2 -12 -6 -17 -18 -10 -28 -29 -30 -29 -4 0 22
-22 41 -28 23 -5 -15 -32 -3 -32 14 0 18 -10 18 -38 -2 -13 -9 -26 -13 -29
-10 -3 3 6 10 20 17 19 9 26 20 29 50 3 31 0 39 -17 43 -33 9 -38 7 -24 -11
10 -11 10 -14 2 -9 -7 4 -13 2 -13 -3 0 -6 5 -11 11 -11 13 0 2 -39 -17 -57
-16 -17 -24 -16 -24 1 0 8 -5 18 -12 22 -8 5 -9 2 -4 -11 5 -15 2 -14 -16 5
-15 16 -20 28 -13 32 11 9 11 9 -27 12 -14 1 -25 -1 -23 -4 2 -3 -16 -6 -41
-6 -24 1 -44 4 -44 8 0 4 -7 5 -15 2 -8 -4 -15 -2 -15 4 0 5 -9 12 -20 15 -15
4 -20 0 -20 -16 0 -17 -2 -19 -9 -8 -7 11 -10 10 -14 -5 -5 -18 -5 -18 -6 0
-1 15 -4 16 -15 7 -11 -9 -17 -9 -27 2 -8 7 -29 13 -47 12 -18 0 -35 2 -38 6
-5 9 25 21 36 14 4 -3 23 1 41 8 36 14 147 16 215 3 27 -6 48 -4 60 3 17 11
17 11 -6 10 -60 -3 -66 0 -77 39 l-10 37 -2 -35 c-1 -35 -2 -36 -38 -32 -51 6
-60 15 -74 78 -11 47 -14 52 -25 36 -11 -14 -13 -3 -13 78 -1 163 22 210 100
210 49 0 61 -17 90 -137 13 -56 27 -93 35 -93 7 0 14 -5 16 -12 5 -15 239 8
250 25 25 39 -10 65 -100 74 -29 3 -50 9 -45 12 5 3 15 26 23 51 18 56 62 100
100 100 47 0 75 -36 110 -141 l33 -96 85 -6 c95 -6 114 -2 110 22 -2 12 -23
19 -82 27 -69 10 -83 15 -103 40 -29 37 -29 71 1 109 l24 30 101 -3 c81 -2
101 1 101 12 0 18 -450 31 -703 21 l-175 -7 -6 -42 c-3 -22 -8 -81 -11 -131
-3 -49 -8 -107 -11 -127 -6 -38 -6 -38 30 -38 39 0 42 -7 30 -69 -6 -28 -10
-31 -38 -27 -17 2 -46 9 -64 16 -20 8 -57 10 -92 7 -39 -3 -74 0 -102 10 -25
9 -59 12 -83 9 -30 -4 -35 -3 -17 4 24 10 28 20 13 36 -6 5 -11 29 -13 54 l-3
45 -20 -40 -20 -40 -5 48 c-3 26 -9 48 -15 48 -11 1 -55 -117 -47 -125 3 -4
-7 -6 -22 -6 -26 0 -28 2 -23 33 3 17 2 41 -3 52 -8 18 -9 17 -11 -7 -1 -16
-3 -36 -3 -45 -2 -46 -74 -28 -181 43 -30 19 -67 39 -82 44 -16 5 -20 9 -10 9
22 1 21 9 -2 45 -21 31 -18 58 5 49 8 -3 14 1 14 10 0 18 65 77 85 77 8 0 15
5 15 11 0 11 -16 9 -52 -6 -30 -12 -21 18 20 62 50 55 62 71 62 80 1 19 56 47
94 47 33 1 44 6 58 29 10 15 26 27 37 27 11 0 27 3 36 7 15 5 16 3 6 -15 -21
-40 -11 -44 19 -7 30 38 81 89 90 91 3 0 17 4 33 8 32 9 57 -6 52 -32 -2 -9
-6 -42 -9 -72 l-5 -55 29 85 c16 47 29 93 29 102 1 9 12 30 26 46 14 17 25 36
25 43 0 7 3 9 7 6 3 -4 12 2 20 12 13 19 14 19 37 -2 65 -60 261 -109 486
-120 101 -6 67 7 -45 16 -67 5 -78 8 -152 45 -50 24 -74 50 -35 38 43 -14 129
-26 176 -25 46 2 43 2 -24 10 -42 4 -109 17 -150 29 -41 12 -109 30 -150 41
-41 11 -80 25 -87 32 -7 6 -16 37 -21 67 l-8 56 100 -24 c56 -13 124 -30 151
-37 28 -8 98 -20 157 -26 l107 -12 5 -51 c2 -28 4 -67 3 -86 l-2 -35 187 0
c221 0 219 -1 226 96 3 45 1 64 -9 70 -8 5 -97 9 -199 9 -159 0 -202 4 -304
25 -93 20 -128 32 -163 57 -24 18 -40 34 -34 36 5 2 48 -4 94 -12 46 -9 101
-15 123 -15 38 1 38 2 -11 9 -27 5 -84 13 -125 19 -112 17 -254 57 -298 85
-31 19 -41 33 -50 72 -7 27 -17 67 -23 89 -12 48 -41 79 -58 62 -13 -13 -15
-37 -2 -37 5 0 7 -9 4 -20 -8 -32 -28 -18 -31 23 -2 19 -9 40 -16 46 -11 9
-15 2 -21 -31 -7 -41 -7 -42 -18 -18 -5 14 -11 27 -11 30 -5 21 -26 42 -37 38
-9 -3 -27 15 -47 46 -19 28 -42 56 -53 64 -17 12 -19 26 -19 143 0 127 12 213
32 225 6 4 7 -2 3 -16 -6 -18 -4 -21 17 -18 42 6 67 98 27 98 -17 0 -19 3 -10
13 17 22 82 37 159 38 l70 1 19 78 19 77 -81 18 c-44 9 -90 20 -102 22 -26 6
-29 20 -9 46 15 19 19 19 151 -17 38 -10 62 -13 69 -6 15 15 5 20 -96 46 -136
36 -186 50 -248 68 -47 13 -115 32 -405 111 -85 23 -234 63 -370 99 -175 46
-310 83 -370 100 -27 9 -79 22 -115 31 -36 8 -96 25 -135 36 -123 35 -328 89
-341 89 -2 0 -4 -169 -4 -375z m1285 -5 c88 -24 161 -44 163 -46 2 -1 -2 -13
-10 -26 -23 -41 -14 -68 22 -67 10 0 9 3 -5 10 -16 7 -14 8 10 3 17 -3 37 -12
46 -20 9 -8 34 -18 55 -21 37 -6 109 -32 91 -33 -10 0 -224 51 -362 86 -114
30 -145 38 -233 58 -79 18 -93 30 -27 22 47 -5 46 -5 -22 16 l-73 21 0 42 0
42 93 -22 c50 -12 164 -41 252 -65z m288 -76 c7 -7 -32 -74 -44 -74 -12 0 -11
17 1 25 6 3 10 17 10 31 0 22 18 32 33 18z m113 -63 c-9 -16 -12 -31 -9 -35 4
-3 1 -6 -5 -6 -21 0 -22 18 -1 44 27 34 33 33 15 -3z m134 -8 c0 -5 -9 -19
-19 -32 -22 -28 -38 -12 -19 19 12 19 38 28 38 13z m-100 -63 c11 -8 7 -9 -15
-4 -37 8 -45 14 -19 14 10 0 26 -5 34 -10z m-758 -503 c7 -178 6 -212 -7 -230
-8 -12 -15 -31 -15 -42 0 -14 -3 -16 -9 -7 -13 21 -15 285 -2 277 6 -3 11 -2
11 4 0 5 -4 11 -9 13 -5 2 -12 47 -16 101 l-7 99 24 -4 c23 -3 23 -3 30 -211z
m338 -51 c0 -11 -19 -15 -25 -6 -3 5 1 10 9 10 9 0 16 -2 16 -4z m-111 -13 c0
-5 -4 -17 -9 -28 -8 -18 -9 -17 -9 8 -1 15 4 27 9 27 6 0 10 -3 9 -7z m211 -3
c12 -8 9 -10 -12 -10 -16 0 -28 5 -28 10 0 13 20 13 40 0z m90 -41 c0 -6 -4
-7 -10 -4 -5 3 -10 11 -10 16 0 6 5 7 10 4 6 -3 10 -11 10 -16z m-670 -389 c0
-5 -10 -10 -22 -10 -19 0 -20 2 -8 10 19 13 30 13 30 0z m1232 -69 c2 -22 0
-37 -4 -35 -8 5 -11 74 -4 74 2 0 6 -18 8 -39z m-1043 -17 c31 -15 90 -50 131
-78 41 -29 107 -67 145 -86 39 -18 77 -38 85 -45 8 -7 47 -29 85 -49 81 -43
150 -99 141 -115 -4 -5 -13 -8 -21 -4 -10 3 -15 -1 -15 -12 0 -10 5 -13 12 -9
8 5 9 2 5 -10 -4 -10 -7 -24 -7 -32 0 -8 -9 -14 -20 -14 -13 0 -18 -5 -14 -14
3 -8 1 -23 -5 -33 -9 -16 -10 -15 -11 8 0 23 -6 28 -37 34 -21 4 -44 11 -50
17 -7 6 -20 8 -28 4 -9 -3 -13 -2 -10 4 6 9 -8 14 -27 11 -5 0 -8 3 -8 9 0 11
-53 40 -75 40 -8 0 -15 -6 -15 -14 0 -8 -4 -17 -9 -20 -4 -3 -6 7 -4 22 l5 27
-21 -25 c-21 -26 -27 -41 -13 -38 4 0 24 -6 44 -15 21 -10 45 -18 55 -20 10
-1 24 -6 31 -11 7 -4 21 -4 30 0 24 10 45 14 37 6 -4 -4 -12 -7 -17 -7 -6 0
-13 -6 -16 -14 -3 -8 0 -11 6 -7 6 3 13 2 17 -4 3 -5 15 -15 26 -20 16 -9 21
-7 29 12 l11 23 -5 -22 c-3 -18 1 -23 17 -24 l22 0 -21 -11 c-12 -5 -27 -21
-33 -34 l-11 -25 -38 20 c-43 22 -193 62 -204 54 -5 -2 -8 1 -8 8 0 18 -28 -9
-47 -44 -17 -33 -6 -49 32 -43 11 2 26 -3 34 -11 8 -8 22 -12 32 -10 11 3 19
0 19 -7 0 -8 -23 -12 -67 -14 -71 -2 -84 4 -159 75 -18 16 -51 35 -74 43 -23
8 -45 21 -48 29 -3 9 -13 25 -22 36 -9 11 -20 28 -23 37 -5 15 0 13 31 -7 55
-36 91 -40 145 -16 49 23 87 72 87 114 0 20 6 27 29 32 16 3 34 12 40 18 7 9
0 11 -30 9 -28 -3 -39 0 -39 10 0 18 -38 88 -63 115 -32 36 -79 47 -119 28
-66 -31 -93 -48 -103 -64 -7 -13 -10 -9 -16 19 -5 25 -2 44 12 73 19 36 85
117 97 117 3 0 30 -12 61 -26z m-146 -28 c-10 -13 -19 -23 -21 -21 -7 6 19 45
29 45 5 0 2 -11 -8 -24z m1132 8 c15 -11 17 -17 7 -23 -10 -6 -7 -12 11 -24
34 -22 42 -61 20 -92 -23 -31 -27 -31 -48 1 -17 27 -32 154 -18 154 5 0 17 -7
28 -16z m-1085 -209 c0 -19 -4 -35 -10 -35 -5 0 -10 12 -10 26 0 24 -2 25 -17
13 -15 -11 -14 -10 1 9 27 31 36 28 36 -13z m-55 -67 c4 -40 5 -91 3 -113 l-4
-40 -13 47 c-7 26 -17 45 -22 42 -15 -9 -10 80 6 102 8 12 11 24 8 28 -3 3 -1
6 4 6 7 0 14 -31 18 -72z m120 15 c-6 -24 -8 -26 -16 -10 -6 10 -15 14 -21 11
-7 -4 -8 -2 -4 5 4 6 12 8 18 5 7 -5 9 -2 5 8 -7 20 3 32 16 19 5 -5 6 -22 2
-38z m750 10 c-2 -16 -7 -49 -10 -75 -3 -26 -10 -50 -16 -53 -13 -8 -12 111 1
136 16 28 30 23 25 -8z m-679 -15 c5 -8 2 -9 -9 -5 -10 3 -17 2 -17 -3 0 -6
-4 -10 -10 -10 -5 0 -10 7 -10 15 0 18 36 20 46 3z m-16 -38 c0 -5 -8 -10 -17
-10 -15 0 -16 2 -3 10 19 12 20 12 20 0z m70 -26 c0 -21 -4 -33 -10 -29 -5 3
-10 17 -10 31 0 17 -4 23 -12 18 -7 -4 -8 -3 -4 4 16 26 36 12 36 -24z m360
-134 c0 -5 -4 -10 -10 -10 -5 0 -10 5 -10 10 0 6 5 10 10 10 6 0 10 -4 10 -10z
m-293 -102 c-3 -8 -6 -5 -6 6 -1 11 2 17 5 13 3 -3 4 -12 1 -19z m62 3 c23
-15 -2 -19 -29 -5 -22 12 -22 14 -5 14 11 0 26 -4 34 -9z m151 5 c0 -3 -4 -8
-10 -11 -5 -3 -10 -1 -10 4 0 6 5 11 10 11 6 0 10 -2 10 -4z m-23 -40 c22 -4
24 -13 3 -19 -11 -3 -18 -1 -14 4 3 5 -6 9 -20 9 -14 0 -28 5 -32 11 -5 9 1
10 22 4 16 -4 34 -8 41 -9z m1177 -138 c-8 -84 -8 -85 -43 -90 -35 -5 -35 -6
-25 91 l7 61 33 0 34 0 -6 -62z m-24 -528 c-14 -10 -27 -17 -29 -14 -6 5 31
33 44 33 6 1 -1 -8 -15 -19z m100 -30 c0 -11 7 -23 16 -27 10 -4 14 -16 12
-39 -1 -18 1 -36 5 -40 13 -13 7 -26 -10 -22 -14 3 -17 11 -15 42 2 21 0 41
-6 45 -14 9 -24 61 -12 61 5 0 10 -9 10 -20z m-140 -4 c0 -3 -15 -14 -32 -26
l-33 -22 30 26 c31 27 35 29 35 22z m1176 -262 c-5 -14 -9 -15 -19 -5 -9 9 -9
14 3 21 18 11 24 6 16 -16z"/>
<path d="M1098 4133 c6 -2 18 -2 25 0 6 3 1 5 -13 5 -14 0 -19 -2 -12 -5z"/>
<path d="M1181 4116 c2 -2 18 -6 34 -10 22 -5 26 -4 15 4 -14 9 -59 15 -49 6z"/>
<path d="M1325 4075 c21 -8 41 -12 44 -10 5 6 -47 25 -67 25 -9 -1 1 -7 23
-15z"/>
<path d="M933 3365 c0 -22 2 -30 4 -17 2 12 2 30 0 40 -3 9 -5 -1 -4 -23z"/>
<path d="M1262 2566 c-10 -22 -8 -25 18 -36 16 -7 34 -9 41 -4 8 4 10 3 5 -4
-6 -9 27 -30 98 -61 5 -2 7 8 4 22 -3 15 -1 24 3 21 5 -3 9 0 9 6 0 10 -95 60
-124 64 -8 1 -19 5 -22 9 -12 12 -20 8 -32 -17z m88 -16 c0 -5 -5 -10 -11 -10
-5 0 -7 5 -4 10 3 6 8 10 11 10 2 0 4 -4 4 -10z"/>
<path d="M1176 2433 c-6 -14 -5 -15 5 -6 7 7 10 15 7 18 -3 3 -9 -2 -12 -12z"/>
<path d="M1209 2443 c-1 -5 -1 -11 0 -15 0 -5 -3 -8 -9 -8 -5 0 -10 -7 -10
-15 0 -14 4 -17 33 -19 6 -1 18 -7 25 -13 7 -7 24 -13 37 -13 17 0 24 7 28 28
6 31 6 31 -21 37 -11 2 -30 8 -41 14 -23 13 -41 14 -42 4z m91 -53 c0 -5 -5
-10 -11 -10 -5 0 -7 5 -4 10 3 6 8 10 11 10 2 0 4 -4 4 -10z"/>
<path d="M1137 2355 c-24 -50 -20 -58 4 -12 11 22 19 41 17 43 -3 2 -12 -12
-21 -31z"/>
<path d="M2700 4453 c-73 -12 -166 -36 -194 -50 -115 -59 -308 -235 -290 -265
3 -5 0 -7 -7 -6 -18 4 -76 -98 -109 -193 -27 -77 -42 -144 -20 -94 7 16 9 17
9 3 1 -9 -5 -21 -12 -25 -18 -11 -37 -101 -38 -176 0 -57 -15 -162 -18 -127 0
8 -8 34 -17 57 -15 39 -18 41 -29 26 -17 -26 -24 -57 -35 -148 -14 -131 14
-273 63 -313 12 -10 15 -3 20 45 3 32 2 60 -2 63 -15 10 -33 105 -36 195 -2
50 -1 79 2 65 3 -13 11 -33 19 -44 14 -20 14 -20 15 4 1 14 5 -17 9 -68 5 -51
19 -138 33 -195 14 -56 28 -119 32 -139 9 -57 65 -97 190 -135 28 -8 59 -20
70 -26 11 -7 27 -12 35 -13 176 -22 263 -28 460 -28 129 0 279 5 334 12 107
13 258 61 292 93 11 10 26 42 34 71 7 29 24 73 36 99 13 26 24 55 25 65 1 14
3 12 9 -6 7 -22 8 -20 10 15 l2 40 12 -45 c11 -44 11 -43 14 50 3 91 -6 178
-15 153 -3 -7 -9 -13 -15 -13 -7 0 -9 23 -5 68 6 66 -5 262 -19 337 -7 38 -7
38 -17 15 l-10 -25 -4 25 c-9 70 -68 214 -102 249 -23 25 -44 -14 -36 -69 7
-45 7 -45 -13 -26 -12 10 -24 31 -27 47 -6 25 -10 28 -37 25 -39 -5 -78 33
-78 74 0 17 -9 39 -21 51 -15 15 -18 24 -10 32 18 18 13 31 -6 16 -14 -12 -15
-12 -11 1 3 8 -1 23 -10 33 -14 16 -13 16 16 6 18 -6 32 -15 32 -20 0 -6 8 -5
19 1 28 14 36 12 21 -5 -11 -13 -10 -14 4 -9 28 11 25 17 -45 80 -13 12 -50
36 -81 53 -32 18 -56 38 -55 44 1 6 -7 12 -18 14 l-20 3 20 -9 c11 -5 15 -10
9 -10 -7 -1 -25 6 -40 14 -16 8 -39 15 -51 15 -13 0 -23 3 -23 8 0 4 -21 6
-47 5 -41 -2 -44 -1 -18 6 31 9 -154 12 -205 4z m-13 -19 c-3 -3 -12 -4 -19
-1 -8 3 -5 6 6 6 11 1 17 -2 13 -5z m-107 -24 c-8 -5 -19 -10 -25 -10 -5 0 -3
5 5 10 8 5 20 10 25 10 6 0 3 -5 -5 -10z m-61 -24 c-2 -2 -15 -9 -29 -15 -24
-11 -24 -11 -6 3 16 13 49 24 35 12z m-73 -48 c-19 -11 -111 -92 -156 -137
-14 -15 -31 -37 -37 -51 l-11 -25 1 24 c2 34 199 220 217 204 3 -3 -4 -9 -14
-15z m834 -320 c0 -18 -2 -20 -9 -8 -6 8 -7 18 -5 22 9 14 14 9 14 -14z
m-1171 -117 c-6 -18 -13 -30 -15 -28 -2 2 1 18 7 36 6 18 13 30 15 28 2 -2 -1
-18 -7 -36z m800 -538 c1 -14 -5 -23 -13 -23 -8 0 -17 -6 -19 -12 -3 -7 -6 -3
-6 10 -1 13 3 21 8 18 13 -8 20 15 15 50 -3 28 -3 28 5 4 5 -14 9 -35 10 -47z
m-32 25 c-3 -8 -6 -5 -6 6 -1 11 2 17 5 13 3 -3 4 -12 1 -19z m-830 -10 c-3
-8 -6 -5 -6 6 -1 11 2 17 5 13 3 -3 4 -12 1 -19z"/>
<path d="M4378 4243 c7 -3 16 -2 19 1 4 3 -2 6 -13 5 -11 0 -14 -3 -6 -6z"/>
<path d="M640 3531 c0 -5 5 -13 10 -16 6 -3 10 -2 10 4 0 5 -4 13 -10 16 -5 3
-10 2 -10 -4z"/>
<path d="M505 3519 c-10 -15 3 -25 16 -12 7 7 7 13 1 17 -6 3 -14 1 -17 -5z"/>
<path d="M682 3520 c7 -23 36 -36 50 -22 14 14 11 18 -26 28 -21 5 -28 4 -24
-6z"/>
<path d="M776 3480 c12 -5 25 -13 29 -19 8 -14 25 -14 25 0 0 5 -4 8 -9 5 -5
-3 -11 1 -15 9 -3 8 -16 15 -28 14 -23 0 -23 0 -2 -9z"/>
<path d="M815 3369 c-4 -6 -5 -12 -2 -15 2 -3 7 2 10 11 7 17 1 20 -8 4z"/>
<path d="M845 3361 c-3 -6 -1 -11 4 -11 6 0 11 -6 11 -14 0 -7 6 -19 13 -25
11 -8 14 -7 14 6 0 24 -33 58 -42 44z"/>
<path d="M138 3343 c6 -2 18 -2 25 0 6 3 1 5 -13 5 -14 0 -19 -2 -12 -5z"/>
<path d="M213 3333 c9 -2 23 -2 30 0 6 3 -1 5 -18 5 -16 0 -22 -2 -12 -5z"/>
<path d="M488 3303 c7 -3 16 -2 19 1 4 3 -2 6 -13 5 -11 0 -14 -3 -6 -6z"/>
<path d="M820 3278 c0 -4 11 -8 24 -8 13 0 30 -2 38 -3 7 -2 10 -2 5 0 -4 3
-5 8 -2 13 3 4 -11 7 -30 7 -19 -1 -35 -5 -35 -9z"/>
<path d="M350 2991 c0 -6 5 -13 12 -17 6 -4 8 -3 4 4 -3 5 0 13 6 15 8 3 6 6
-4 6 -10 1 -18 -3 -18 -8z"/>
<path d="M68 2903 c17 -2 47 -2 65 0 17 2 3 4 -33 4 -36 0 -50 -2 -32 -4z"/>
<path d="M2318 2903 c7 -3 16 -2 19 1 4 3 -2 6 -13 5 -11 0 -14 -3 -6 -6z"/>
<path d="M223 2893 c15 -2 37 -2 50 0 12 2 0 4 -28 4 -27 0 -38 -2 -22 -4z"/>
<path d="M663 2873 c9 -2 23 -2 30 0 6 3 -1 5 -18 5 -16 0 -22 -2 -12 -5z"/>
<path d="M3295 2829 c-22 -5 -123 -16 -225 -24 -101 -9 -186 -18 -189 -20 -2
-3 56 -4 130 -3 101 1 144 -2 175 -14 69 -27 171 -10 194 32 10 18 8 20 -20
20 -18 0 -29 4 -25 10 3 6 5 9 3 9 -2 -1 -21 -5 -43 -10z"/>
<path d="M712 2785 c-11 -13 -22 -22 -26 -20 -3 3 -4 2 -1 -1 2 -4 -5 -24 -16
-46 -24 -47 -22 -83 4 -83 18 0 27 12 66 93 16 33 19 48 11 62 -13 25 -15 25
-38 -5z"/>
<path d="M2648 2793 c7 -3 16 -2 19 1 4 3 -2 6 -13 5 -11 0 -14 -3 -6 -6z"/>
<path d="M350 2686 c0 -2 7 -7 16 -10 8 -3 12 -2 9 4 -6 10 -25 14 -25 6z"/>
<path d="M3135 2571 c-47 -5 -55 -8 -35 -13 31 -9 136 -9 170 1 24 7 24 7 -9
14 -18 4 -41 6 -50 5 -9 -1 -43 -4 -76 -7z"/>
<path d="M25 2440 c-3 -5 -1 -10 4 -10 6 0 11 5 11 10 0 6 -2 10 -4 10 -3 0
-8 -4 -11 -10z"/>
<path d="M443 2438 c4 -11 0 -18 -11 -21 -16 -4 -16 -5 0 -6 23 -1 33 18 18
32 -10 9 -12 8 -7 -5z"/>
<path d="M395 2380 c-3 -6 1 -7 9 -4 18 7 21 14 7 14 -6 0 -13 -4 -16 -10z"/>
<path d="M1916 2305 c-9 -26 -7 -32 5 -12 6 10 9 21 6 23 -2 3 -7 -2 -11 -11z"/>
<path d="M3595 2125 c-10 -118 -10 -119 -16 -55 -3 39 -6 -6 -6 -110 0 -184 2
-176 27 85 6 72 10 146 8 165 -2 19 -8 -19 -13 -85z"/>
<path d="M3583 2180 c0 -25 2 -35 4 -22 2 12 2 32 0 45 -2 12 -4 2 -4 -23z"/>
<path d="M3258 2184 c7 -4 23 -16 36 -28 27 -26 55 -47 84 -64 21 -12 22 -11
22 33 0 38 -3 45 -22 49 -39 8 -134 15 -120 10z"/>
<path d="M4060 2184 c0 -4 9 -17 19 -28 10 -12 57 -71 103 -132 77 -101 86
-110 96 -93 10 16 10 21 -2 25 -8 3 -19 3 -24 0 -6 -3 -12 1 -16 9 -3 8 -1 17
5 21 14 8 -9 34 -26 28 -16 -7 -29 12 -15 21 7 4 -14 34 -52 73 -64 68 -88 89
-88 76z"/>
<path d="M2654 2105 c-21 -50 -18 -55 25 -55 l40 0 -16 45 c-8 25 -19 45 -24
45 -6 0 -17 -16 -25 -35z"/>
<path d="M3080 2130 c0 -7 -34 -8 -95 -4 -84 6 -95 5 -101 -10 -11 -28 10 -38
85 -45 88 -8 121 -34 121 -94 l0 -40 102 7 c56 4 105 9 110 12 4 3 8 18 8 34
l0 28 -100 7 c-55 4 -100 9 -100 10 0 1 7 19 16 40 8 20 14 38 12 39 -23 14
-58 24 -58 16z m32 -172 c-7 -7 -12 -8 -12 -2 0 14 12 26 19 19 2 -3 -1 -11
-7 -17z"/>
<path d="M2287 2123 c-3 -4 -8 -46 -12 -92 -8 -93 -4 -101 53 -101 36 0 36
-13 2 125 -16 64 -31 88 -43 68z"/>
<path d="M3197 2070 c-4 -17 0 -20 29 -20 39 0 40 2 18 24 -21 22 -41 20 -47
-4z"/>
<path d="M3350 2005 c0 -9 7 -32 15 -52 8 -19 15 -44 15 -54 0 -10 9 -23 20
-29 19 -10 20 -8 20 42 -1 55 -10 74 -48 96 -19 10 -22 10 -22 -3z"/>
<path d="M1662 1975 c0 -16 2 -22 5 -12 2 9 2 23 0 30 -3 6 -5 -1 -5 -18z"/>
<path d="M1821 1984 c0 -11 3 -14 6 -6 3 7 2 16 -1 19 -3 4 -6 -2 -5 -13z"/>
<path d="M3769 1919 c-6 -194 -10 -240 -19 -263 -13 -34 -13 -43 0 -30 19 19
43 284 26 301 -3 3 -6 0 -7 -8z"/>
<path d="M3740 1804 c-11 -27 -13 -51 -5 -42 8 8 25 68 19 68 -2 0 -9 -12 -14
-26z"/>
<path d="M3392 1785 c0 -16 2 -22 5 -12 2 9 2 23 0 30 -3 6 -5 -1 -5 -18z"/>
<path d="M2638 1753 c7 -3 16 -2 19 1 4 3 -2 6 -13 5 -11 0 -14 -3 -6 -6z"/>
<path d="M2720 1743 c0 -6 -9 -9 -22 -6 -18 5 -21 3 -11 -7 6 -7 9 -19 6 -26
-4 -11 16 -14 108 -14 125 0 142 7 31 14 -61 3 -75 8 -92 27 -10 13 -19 19
-20 12z"/>
<path d="M3305 1698 c-22 -5 -67 -13 -100 -17 l-60 -8 53 -1 c55 -2 140 14
157 29 11 11 5 10 -50 -3z"/>
<path d="M2938 1693 c7 -3 16 -2 19 1 4 3 -2 6 -13 5 -11 0 -14 -3 -6 -6z"/>
<path d="M3590 1690 c-8 -5 -10 -10 -5 -10 6 0 17 5 25 10 8 5 11 10 5 10 -5
0 -17 -5 -25 -10z"/>
<path d="M3660 1695 c1 -12 25 -45 32 -45 3 0 8 9 11 21 4 14 2 19 -8 16 -7
-3 -18 0 -24 6 -6 6 -11 7 -11 2z"/>
<path d="M2606 1672 c6 -4 13 -13 15 -20 3 -8 8 -5 17 8 11 18 10 20 -15 20
-16 0 -23 -4 -17 -8z"/>
<path d="M3690 1615 c0 -8 8 -11 20 -8 11 3 20 7 20 8 0 1 -9 5 -20 8 -12 3
-20 0 -20 -8z"/>
<path d="M3100 1353 c-78 -10 -93 -14 -81 -26 9 -9 14 -9 19 0 4 7 34 13 67
15 33 2 51 5 40 8 -11 3 -31 4 -45 3z"/>
<path d="M3028 1303 c7 -3 16 -2 19 1 4 3 -2 6 -13 5 -11 0 -14 -3 -6 -6z"/>
<path d="M3516 1152 c-9 -15 -16 -132 -8 -132 21 0 30 23 21 53 -5 18 -9 43
-8 57 0 23 1 23 9 5 8 -19 9 -19 9 3 1 21 -13 30 -23 14z"/>
<path d="M3090 1110 c-63 -21 -104 -61 -119 -117 -32 -113 11 -211 107 -247
53 -20 88 -20 142 -1 47 17 56 26 100 100 37 63 38 81 3 88 -35 8 -60 24 -51
32 4 4 23 8 44 8 21 1 39 7 41 13 7 20 -76 102 -120 118 -70 25 -90 26 -147 6z"/>
<path d="M2294 1096 c-23 -7 -61 -27 -86 -44 -40 -27 -45 -35 -42 -62 5 -40
43 -166 60 -199 8 -14 14 -30 14 -36 0 -5 13 -24 29 -41 28 -31 30 -31 82 -22
77 13 129 40 175 90 73 79 69 188 -11 264 -61 59 -137 76 -221 50z"/>
<path d="M1011 881 c-7 -5 -11 -15 -9 -22 3 -10 8 -7 17 9 13 24 12 26 -8 13z"/>
<path d="M3627 849 c7 -7 15 -10 18 -7 3 3 -2 9 -12 12 -14 6 -15 5 -6 -5z"/>
<path d="M3821 824 c0 -11 3 -14 6 -6 3 7 2 16 -1 19 -3 4 -6 -2 -5 -13z"/>
<path d="M3860 809 c0 -5 5 -7 10 -4 6 3 10 8 10 11 0 2 -4 4 -10 4 -5 0 -10
-5 -10 -11z"/>
<path d="M3830 760 c8 -5 20 -10 25 -10 6 0 3 5 -5 10 -8 5 -19 10 -25 10 -5
0 -3 -5 5 -10z"/>
<path d="M974 752 c-6 -4 -15 -18 -19 -32 -7 -25 -7 -25 15 3 22 28 24 42 4
29z"/>
<path d="M3830 710 c-13 -9 -13 -11 0 -20 20 -13 23 -13 45 4 18 13 18 14 -9
9 -20 -4 -27 -2 -22 6 9 13 6 14 -14 1z"/>
<path d="M3935 690 c-3 -5 -1 -10 4 -10 6 0 11 5 11 10 0 6 -2 10 -4 10 -3 0
-8 -4 -11 -10z"/>
<path d="M4526 630 c-15 -5 -16 -8 -5 -12 8 -3 28 0 44 7 29 12 29 12 5 12
-14 0 -34 -3 -44 -7z"/>
<path d="M3950 620 c0 -5 5 -10 10 -10 6 0 10 5 10 10 0 6 -4 10 -10 10 -5 0
-10 -4 -10 -10z"/>
<path d="M926 556 c-22 -46 -20 -54 5 -22 11 14 27 26 35 26 19 0 18 16 -2 24
-9 3 -17 6 -19 6 -1 0 -10 -15 -19 -34z"/>
<path d="M3978 524 c6 -3 12 -11 12 -19 0 -7 8 -19 18 -26 15 -13 16 -12 4 2
-7 9 -11 23 -10 30 2 7 -6 14 -17 16 -11 1 -14 0 -7 -3z"/>
<path d="M2272 490 c-60 -27 -126 -97 -117 -124 4 -12 11 -43 17 -71 12 -61
51 -136 81 -155 14 -9 46 -13 91 -11 104 3 159 38 206 129 39 75 11 162 -71
222 -36 26 -51 30 -103 30 -39 0 -77 -8 -104 -20z"/>
<path d="M3960 476 c0 -17 14 -29 23 -20 8 8 -3 34 -14 34 -5 0 -9 -6 -9 -14z"/>
<path d="M3097 456 c-52 -19 -67 -33 -93 -91 -29 -62 -30 -106 -3 -162 31 -63
79 -99 155 -113 132 -25 212 20 244 138 11 41 0 89 -29 124 -81 101 -109 118
-188 118 -26 -1 -65 -7 -86 -14z"/>
<path d="M4003 422 c-7 -4 -9 -13 -5 -19 5 -8 11 -7 19 3 14 15 3 27 -14 16z"/>
<path d="M875 360 c-9 -15 -25 -70 -19 -70 6 0 35 73 30 77 -2 2 -7 -1 -11 -7z"/>
<path d="M4585 321 c-3 -5 -1 -12 5 -16 5 -3 10 1 10 9 0 18 -6 21 -15 7z"/>
<path d="M1498 238 c-9 -7 -20 -34 -23 -60 -9 -59 7 -69 66 -43 35 16 52 35
31 35 -5 0 -7 13 -4 29 2 16 0 31 -5 34 -4 3 -8 -9 -8 -26 0 -33 -27 -49 -47
-29 -15 15 -1 60 20 65 13 4 14 5 1 6 -8 0 -22 -5 -31 -11z"/>
<path d="M3780 236 c0 -2 7 -6 15 -10 8 -3 15 -1 15 4 0 6 -7 10 -15 10 -8 0
-15 -2 -15 -4z"/>
<path d="M3830 220 c19 -13 30 -13 30 0 0 6 -10 10 -22 10 -19 0 -20 -2 -8
-10z"/>
<path d="M3875 210 c3 -5 8 -10 11 -10 2 0 4 5 4 10 0 6 -5 10 -11 10 -5 0 -7
-4 -4 -10z"/>
<path d="M4121 198 c0 -10 -9 -18 -18 -18 -15 0 -16 -2 -3 -10 9 -6 17 -5 21
2 4 7 8 6 11 -3 3 -9 6 -8 11 5 4 9 3 15 -2 11 -5 -3 -12 3 -14 12 -4 17 -5
17 -6 1z"/>
<path d="M3948 193 c6 -2 18 -2 25 0 6 3 1 5 -13 5 -14 0 -19 -2 -12 -5z"/>
<path d="M821 94 c0 -11 3 -14 6 -6 3 7 2 16 -1 19 -3 4 -6 -2 -5 -13z"/>
<path d="M3948 103 c7 -3 16 -2 19 1 4 3 -2 6 -13 5 -11 0 -14 -3 -6 -6z"/>
<path d="M4000 80 c20 -13 33 -13 25 0 -3 6 -14 10 -23 10 -15 0 -15 -2 -2
-10z"/>
</g>
</svg>
